# xmcd
#
# Track frame offsets:
#	150
#	10427
#	11308
#	46759
#	73245
#	95675
#	129852
#	145247
#	181076
#	200977
#	225051
#	260455
#	279660
#
# Disc length: 4335 seconds
#
# Revision: 1
# Processed by: cddbd v1.5.2PL0 Copyright (c) Steve Scherf et al.
# Submitted via: audiograbber 1.83.01
#
DISCID=ae10ed0d
DTITLE=Grateful Dead - 71-12-02 Boston Music Hall, Boston MA
DYEAR=1900
DGENRE=
TTITLE0=Introduction
TTITLE1=Intro. cont.
TTITLE2=Bertha
TTITLE3=Playing In The Band
TTITLE4=Mr Charlie
TTITLE5=Sugaree
TTITLE6=BIODTL
TTITLE7=Black Peter
TTITLE8=Next Time You See Me
TTITLE9=Jack Straw
TTITLE10=Tennessee Jed
TTITLE11=Mexicali Blues
TTITLE12=Smokestack Lightning
EXTD=
EXTT0=
EXTT1=
EXTT2=
EXTT3=
EXTT4=
EXTT5=
EXTT6=
EXTT7=
EXTT8=
EXTT9=
EXTT10=
EXTT11=
EXTT12=
PLAYORDER=
